# xmcd
#
# Track frame offsets:
#	150
#	16647
#	32791
#	53175
#	68643
#	91627
#
# Disc length: 1467 seconds
#
# Revision: 1
# Processed by: cddbd v1.5.2PL0 Copyright (c) Steve Scherf et al.
# Submitted via: audiograbber 1.83.01
#
DISCID=3a05b906
DTITLE=Valvomo - Tiistai Remix [CDS-Promo)
DYEAR=2006
DGENRE=Dance
TTITLE0=Tiistai (Retropop Remix)
TTITLE1=Tiistai (Ucho-Tiistai Dub)
TTITLE2=Tiistai (Tiistai 808 Italo Remix)
TTITLE3=Tiistai (JH Remix)
TTITLE4=Tiistai (SubTalo Remix)
TTITLE5=Tiistai (Tuesday Fever Mix)
EXTD=TR.
EXTT0=
EXTT1=
EXTT2=
EXTT3=
EXTT4=
EXTT5=
PLAYORDER=
